<svg width="30" height="20" viewBox="0 0 30 20" fill="none" xmlns="http://www.w3.org/2000/svg">
<path fill-rule="evenodd" clip-rule="evenodd" d="M8.60908 3.43767C6.89336 3.43767 5.34592 4.46403 4.68603 6.03968C4.08393 7.47734 3.27128 11.0415 2.9039 12.7433C2.80217 13.2146 2.75986 13.6193 2.7925 13.9828C2.90189 15.2004 3.28121 15.782 3.63557 16.0809C4.00761 16.3947 4.57272 16.5833 5.39831 16.5833C6.30721 16.5833 7.15199 16.1176 7.63371 15.3507L9.92122 11.7093L12.9625 6.66638L12.2533 5.49046C12.2533 5.49044 12.2533 5.49044 12.2533 5.49043C11.4853 4.2169 10.1019 3.43767 8.60908 3.43767ZM14.5846 3.97833C13.3036 1.9235 11.0444 0.670166 8.60908 0.670166C5.77038 0.670166 3.21009 2.36831 2.11829 4.97526C1.39478 6.70284 0.529497 10.5628 0.184217 12.1622C0.051098 12.7788 -0.0450797 13.4843 0.0218344 14.2291C0.175927 15.9444 0.77159 17.2935 1.83664 18.1918C2.88401 19.0753 4.18272 19.3508 5.39831 19.3508C7.26632 19.3508 9.00255 18.3934 9.99259 16.8175L12.2869 13.1655L12.3001 13.144L14.5846 9.35598L16.869 13.144L16.8822 13.1655L19.1765 16.8175C20.1665 18.3934 21.9027 19.3508 23.7707 19.3508C25.1377 19.3508 26.5584 18.963 27.6254 17.8485C28.6834 16.7432 29.1885 15.1362 29.1885 13.1239C29.1885 11.8472 28.7019 9.98822 28.2507 8.50013C27.7804 6.94922 27.2731 5.56678 27.1171 5.1491C27.0808 5.05172 27.0373 4.94047 26.9846 4.82248C25.858 2.30207 23.3428 0.670166 20.56 0.670166C18.1247 0.670166 15.8655 1.92351 14.5846 3.97833ZM16.2066 6.6664L19.2478 11.7093L21.5354 15.3507C22.017 16.1176 22.8618 16.5833 23.7707 16.5833C24.6278 16.5833 25.2204 16.3478 25.611 15.9399C26.0104 15.5227 26.4068 14.7081 26.4068 13.1239C26.4068 12.3156 26.0527 10.8337 25.5875 9.29939C25.1414 7.82804 24.6566 6.50656 24.5096 6.11291C24.4837 6.04353 24.4628 5.99158 24.4429 5.94704C23.7621 4.42401 22.2419 3.43767 20.56 3.43767C19.0671 3.43767 17.6838 4.21693 16.9158 5.4905L16.2066 6.6664Z" fill="#5F6073"/>
</svg>
