<svg width="1512" height="115" viewBox="0 0 1512 115" fill="none" xmlns="http://www.w3.org/2000/svg">
<rect width="1512" height="115" fill="#EDEEFF"/>
<path opacity="0.8" d="M335.04 70.1658L339.617 44.4203H346.769L342.334 70.1658H335.04Z" fill="#5F6073"/>
<path opacity="0.8" d="M335.04 70.1658L340.897 44.4203H346.754L342.334 70.1658H335.04Z" fill="#5F6073"/>
<path opacity="0.8" d="M368.23 44.7074C366.126 43.9221 363.895 43.5341 361.65 43.563C354.499 43.563 349.35 47.1388 349.35 52.2885C349.35 56.1497 352.926 58.1456 355.787 59.4401C358.648 60.7347 359.506 61.5862 359.506 62.7291C359.506 64.4457 357.217 65.3032 355.215 65.3032C352.848 65.3556 350.5 64.8666 348.35 63.8735L347.349 63.444L346.347 69.301C348.954 70.2642 351.712 70.751 354.491 70.7382C362.072 70.7382 367.078 67.1624 367.078 61.7274C367.078 58.7238 365.219 56.435 360.92 54.5758C358.346 53.2887 356.772 52.5739 356.772 51.2868C356.772 50.1425 358.059 48.9981 360.92 48.9981C362.783 48.9422 364.635 49.2837 366.355 49.9998L367.07 50.2851L368.215 44.7074H368.23Z" fill="#5F6073"/>
<path opacity="0.8" d="M368.23 44.7074C366.126 43.9221 363.895 43.5341 361.65 43.563C354.499 43.563 350.637 47.1388 350.637 52.2885C350.637 56.1497 352.926 58.1456 355.787 59.4401C358.648 60.7347 359.506 61.5862 359.506 62.7291C359.506 64.4457 357.217 65.3032 355.215 65.3032C352.848 65.3556 350.5 64.8666 348.35 63.8735L347.349 63.444L346.347 69.301C348.954 70.2642 351.712 70.751 354.491 70.7382C362.072 70.7382 367.078 67.1624 367.078 61.7274C367.078 58.7238 365.219 56.435 360.92 54.5758C358.346 53.2887 356.772 52.5739 356.772 51.2868C356.772 50.1425 358.059 48.9981 360.92 48.9981C362.783 48.9422 364.635 49.2837 366.355 49.9998L367.07 50.2851L368.215 44.7074H368.23Z" fill="#5F6073"/>
<path opacity="0.8" d="M380.524 44.4203C378.807 44.4203 377.52 44.5705 376.805 46.2795L366.078 70.1583H373.801L375.231 65.8676H384.392L385.25 70.1583H392.108L386.101 44.4203H380.524ZM377.241 61.5769C377.67 60.2899 380.094 53.9958 380.094 53.9958C380.094 53.9958 380.666 52.4219 381.096 51.4217L381.525 53.8531C381.525 53.8531 382.947 60.2974 383.248 61.7271H377.241V61.5769Z" fill="#5F6073"/>
<path opacity="0.8" d="M382.24 44.4203C380.524 44.4203 379.236 44.5705 378.522 46.2795L366.078 70.1583H373.801L375.231 65.8676H384.392L385.25 70.1583H392.108L386.101 44.4203H382.24ZM377.241 61.5769C377.813 60.1472 380.094 53.9958 380.094 53.9958C380.094 53.9958 380.666 52.4219 381.096 51.4217L381.525 53.8531C381.525 53.8531 382.947 60.2974 383.248 61.7271H377.241V61.5769Z" fill="#5F6073"/>
<path opacity="0.8" d="M321.881 62.4423L321.166 58.7238C319.369 53.8341 315.797 49.8001 311.161 47.4242L317.598 70.3087H325.322L336.906 44.5632H329.183L321.881 62.4423Z" fill="#5F6073"/>
<path opacity="0.8" d="M321.881 62.4423L321.166 58.7238C319.369 53.8341 315.797 49.8001 311.161 47.4242L317.598 70.3087H325.322L336.906 44.5632H330.614L321.881 62.4423Z" fill="#5F6073"/>
<path opacity="0.8" d="M302 44.4205L303.287 44.7059C312.448 46.8519 318.735 52.287 321.159 58.7222L318.584 46.5576C318.155 44.841 316.868 44.4115 315.296 44.4115L302 44.4205Z" fill="#5F6073"/>
<path opacity="0.8" d="M302 44.4203C311.161 46.5589 318.735 52.1441 321.166 58.5733L318.735 48.4181C318.558 47.6414 318.122 46.9483 317.497 46.4539C316.873 45.9595 316.098 45.6934 315.302 45.6998L302 44.4203Z" fill="#5F6073"/>
<path opacity="0.8" d="M302 44.4203C311.161 46.5589 318.735 52.1441 321.166 58.5733L319.45 53.0016C319.02 51.2851 318.448 49.5685 316.446 48.8536L302 44.4203Z" fill="#5F6073"/>
<g opacity="0.8">
<path opacity="0.8" d="M329.033 61.5772L324.17 56.7143L321.881 62.1494L321.309 58.5736C319.508 53.6854 315.934 49.6541 311.296 47.2815L317.733 70.166H325.457L329.033 61.5772Z" fill="#5F6073"/>
<path opacity="0.8" d="M342.334 70.166L336.177 63.8734L335.04 70.166H342.334Z" fill="#5F6073"/>
<path opacity="0.8" d="M358.783 61.298C359.356 61.8702 359.641 62.2997 359.498 62.8719C359.498 64.5884 357.209 65.446 355.208 65.446C352.84 65.4984 350.492 65.0094 348.343 64.0162L347.341 63.5867L346.339 69.4438C348.949 70.4055 351.711 70.8897 354.493 70.8735C359.07 70.8735 362.789 69.5864 364.933 67.2977L358.783 61.298Z" fill="#5F6073"/>
<path opacity="0.8" d="M367.078 70.1658H373.802L375.231 65.8752H384.392L385.25 70.1658H392.109L389.677 59.7252L381.096 51.4293L381.525 53.718C381.525 53.718 382.948 60.1533 383.248 61.577H377.241C377.813 60.1473 380.094 53.9958 380.094 53.9958C380.094 53.9958 380.666 52.422 381.096 51.4218" fill="#5F6073"/>
</g>
<g clip-path="url(#clip0_1_407)">
<path d="M482.283 46.76H486.437L484.354 41.4858L482.283 46.76Z" fill="#5F6073"/>
<path d="M533.718 42.2396C533.235 42.0693 532.722 42.0019 532.211 42.0418H528.452V45.0567H532.211C532.722 45.0966 533.235 45.0292 533.718 44.8589C533.918 44.7059 534.075 44.5042 534.174 44.2731C534.273 44.042 534.311 43.7894 534.284 43.5394C534.37 43.2912 534.359 43.02 534.254 42.7794C534.15 42.5387 533.958 42.3461 533.718 42.2396Z" fill="#5F6073"/>
<path d="M574.038 36.5859V38.8471L572.908 36.5859H564.052V38.8471L562.912 36.5859H550.845C549.021 36.5377 547.212 36.9249 545.568 37.7155V36.5859H537.109V37.7155C536.088 36.9254 534.818 36.5249 533.529 36.5859H503.195L501.122 41.2962L499.049 36.5859H489.442V38.8471L488.311 36.5859H480.219L476.461 45.4408L472.108 55.2392H481.717L482.847 52.2243H485.486L486.615 55.2392H497.543V52.9781L498.485 55.2392H503.959L504.901 52.9781V55.2392H531.081V50.341H531.457C531.833 50.341 531.833 50.341 531.833 50.9068V55.0612H545.398V53.9316C546.982 54.6997 548.724 55.0865 550.484 55.0612H556.136L557.266 52.0463H559.903L561.033 55.0612H571.961V52.2243L573.656 55.0513H582.517V36.5859H574.038ZM510.357 52.4123H507.152V42.05L502.63 52.4123H499.805L495.282 42.05V52.4123H488.876L487.559 49.5873H481.151L480.022 52.6022H476.441L482.095 39.2151H486.805L492.089 51.8485V39.2151H497.175L501.33 48.2578L505.089 39.2151H510.365L510.357 52.4123ZM523.168 42.05H515.829V44.4991H522.988V47.1282H515.829V49.7653H523.168V52.5923H512.616V39.2151H523.168V42.05ZM537.297 47.5239C537.704 48.274 537.899 49.1205 537.863 49.973V52.6101H534.66V50.9068C534.746 49.9905 534.549 49.07 534.094 48.2697C533.529 47.7039 532.965 47.7039 531.833 47.7039H528.442V52.6022H525.239V39.2151H532.399C533.68 39.0647 534.978 39.26 536.158 39.7809C536.664 40.0943 537.073 40.5422 537.339 41.0746C537.605 41.607 537.718 42.2029 537.665 42.7958C537.694 43.5509 537.495 44.2973 537.093 44.9375C536.692 45.5776 536.106 46.0819 535.414 46.3844C536.146 46.5572 536.805 46.9558 537.297 47.5239ZM542.949 52.4222H539.746V39.037H542.951L542.949 52.4222ZM580.066 52.4222H575.546L569.516 42.4357V52.4222H563.11L561.98 49.5952H555.395L554.265 52.6101H550.684C549.041 52.6907 547.428 52.1529 546.162 51.1026C545.54 50.4199 545.068 49.6147 544.776 48.7388C544.484 47.8629 544.379 46.9356 544.467 46.0164C544.359 44.1085 544.963 42.2284 546.162 40.7403C546.79 40.1631 547.535 39.728 548.347 39.4648C549.158 39.2016 550.017 39.1164 550.864 39.2151H553.879V42.042H550.864C549.982 41.972 549.106 42.2416 548.415 42.7958C547.741 43.6506 547.406 44.7241 547.474 45.8107C547.397 46.3807 547.441 46.9605 547.604 47.5123C547.766 48.0641 548.042 48.5756 548.415 49.0136C548.721 49.2869 549.079 49.4947 549.468 49.6244C549.857 49.754 550.268 49.8026 550.676 49.7673H551.996L556.326 39.4129H561.037L566.313 52.0364V39.4129H571.023L576.487 48.6456V39.4129H579.69V52.4123L580.066 52.4222Z" fill="#5F6073"/>
<path d="M556.516 46.7599H560.849L558.778 41.4857L556.516 46.7599Z" fill="#5F6073"/>
<path d="M524.486 73.8924V63.1522L519.588 68.4283L524.486 73.8924Z" fill="#5F6073"/>
<path d="M504.327 64.4722V66.9114H511.298V69.5485H504.327V72.3755H512.042L515.623 68.4189L512.232 64.4623L504.327 64.4722Z" fill="#5F6073"/>
<path d="M531.655 64.4718H527.698V67.8626H531.853C532.983 67.8626 533.736 67.2968 533.736 66.1672C533.684 65.6667 533.436 65.2073 533.046 64.8895C532.656 64.5717 532.156 64.4215 531.655 64.4718Z" fill="#5F6073"/>
<path d="M589.864 67.6743V59.1953H581.951C580.542 59.109 579.146 59.5077 577.995 60.3249V59.1953H569.328C567.983 59.1381 566.659 59.5361 565.569 60.3249V59.1953H550.299V60.3249C549.059 59.5384 547.611 59.1447 546.144 59.1953H535.98V60.3249C534.696 59.4959 533.18 59.1 531.655 59.1953H520.341L517.704 62.0223L515.255 59.1953H498.297V77.6587H514.877L517.514 74.8239L519.963 77.6508H530.138V73.3184H531.457C532.924 73.4093 534.395 73.2172 535.79 72.7526V77.8388H544.269V72.9484H544.645C545.21 72.9484 545.21 72.9484 545.21 73.5142V77.8467H570.825C572.352 77.9274 573.865 77.5327 575.158 76.7171V77.8467H583.269C584.834 77.9582 586.4 77.6322 587.791 76.905C588.744 76.3107 589.523 75.4768 590.052 74.4867C590.581 73.4966 590.841 72.385 590.806 71.2629C590.81 70.0051 590.486 68.768 589.864 67.6743ZM531.457 70.6892H527.699V75.2195H521.661L517.902 70.887L513.945 75.2195H501.5V61.8324H514.123L517.882 66.1649L521.839 61.8324H531.833C534.282 61.8324 537.109 62.5861 537.109 66.1649C536.921 69.9355 534.284 70.6892 531.457 70.6892ZM550.299 69.9355C550.728 70.6767 550.925 71.53 550.864 72.3846V75.0217H547.66V73.3263C547.763 72.4081 547.562 71.4814 547.086 70.6892C546.71 70.1234 545.956 70.1234 544.825 70.1234H541.444V75.0217H538.241V61.6444H545.4C546.681 61.5109 547.974 61.7057 549.159 62.2102C549.69 62.5096 550.129 62.949 550.428 63.4806C550.727 64.0122 550.875 64.6156 550.854 65.2252C550.881 65.9801 550.68 66.7256 550.276 67.3643C549.873 68.003 549.286 68.5054 548.593 68.8059C549.269 68.9872 549.868 69.3838 550.299 69.9355ZM563.308 64.4714H555.951V66.9107H563.11V69.5477H555.951V72.1848H563.308V75.0217H552.748V61.6444H563.308V64.4714ZM571.221 75.0217H565.183V72.1947H571.221C571.455 72.2351 571.695 72.2222 571.924 72.1572C572.152 72.0921 572.363 71.9765 572.541 71.8188C572.782 71.565 572.917 71.2278 572.917 70.8771C572.917 70.5265 572.782 70.1893 572.541 69.9355C572.227 69.6689 571.822 69.5342 571.411 69.5596C568.396 69.3618 564.817 69.5596 564.817 65.4052C564.817 63.5219 565.947 61.4486 569.34 61.4486H575.557V64.6515H569.704C569.254 64.6098 568.802 64.6777 568.384 64.8493C568.008 65.0471 568.008 65.4151 568.008 65.791C568.008 66.3567 568.384 66.5447 568.762 66.7326C569.117 66.8893 569.505 66.9572 569.892 66.9305H571.587C572.229 66.8683 572.877 66.9363 573.492 67.1304C574.108 67.3245 574.677 67.6407 575.168 68.0601C575.843 68.8406 576.182 69.8572 576.109 70.887C576.109 73.7022 574.414 75.0217 571.221 75.0217ZM587.423 73.7022C586.329 74.645 584.908 75.119 583.467 75.0217H577.429V72.1947H583.459C583.693 72.2351 583.933 72.2222 584.161 72.1572C584.39 72.0921 584.601 71.9765 584.778 71.8188C585.02 71.565 585.155 71.2278 585.155 70.8771C585.155 70.5265 585.02 70.1893 584.778 69.9355C584.464 69.6689 584.06 69.5342 583.649 69.5596C580.634 69.3618 577.055 69.5596 577.055 65.4052C577.055 63.5219 578.185 61.4486 581.577 61.4486H587.795V64.6515H582.139C581.69 64.6098 581.237 64.6777 580.82 64.8493C580.444 65.0471 580.444 65.4151 580.444 65.791C580.444 66.3567 580.642 66.5447 581.198 66.7326C581.552 66.8893 581.94 66.9572 582.327 66.9305H584.023C584.665 66.8683 585.313 66.9363 585.928 67.1304C586.543 67.3245 587.113 67.6407 587.603 68.0601C587.63 68.058 587.656 68.0617 587.681 68.0709C587.706 68.0801 587.729 68.0946 587.748 68.1134C587.767 68.1322 587.781 68.1548 587.79 68.1798C587.8 68.2047 587.803 68.2314 587.801 68.2579C588.332 69.0319 588.596 69.9575 588.555 70.895C588.566 71.4157 588.47 71.9332 588.274 72.4159C588.078 72.8985 587.786 73.3362 587.415 73.7022H587.423Z" fill="#5F6073"/>
<path d="M546.908 64.8481C546.425 64.6778 545.911 64.6104 545.4 64.6503H541.642V67.6652H545.4C545.911 67.7051 546.425 67.6377 546.908 67.4674C547.107 67.3144 547.264 67.1127 547.363 66.8817C547.462 66.6506 547.5 66.3979 547.474 66.1479C547.559 65.8997 547.548 65.6286 547.444 65.3879C547.339 65.1473 547.148 64.9547 546.908 64.8481Z" fill="#5F6073"/>
<path d="M533.718 42.2395C533.235 42.0692 532.722 42.0018 532.211 42.0417H528.452V45.0566H532.211C532.722 45.0965 533.235 45.0291 533.718 44.8588C533.918 44.7058 534.075 44.5041 534.174 44.273C534.273 44.0419 534.311 43.7892 534.284 43.5392C534.37 43.2911 534.359 43.0199 534.254 42.7793C534.149 42.5386 533.958 42.346 533.718 42.2395Z" fill="#5F6073"/>
<path d="M556.516 46.7599H560.849L558.778 41.4857L556.516 46.7599Z" fill="#5F6073"/>
<path d="M524.486 73.8924V63.1522L519.588 68.4283L524.486 73.8924Z" fill="#5F6073"/>
<path d="M531.655 64.4718H527.698V67.8626H531.853C532.983 67.8626 533.736 67.2968 533.736 66.1672C533.684 65.6667 533.436 65.2073 533.046 64.8895C532.656 64.5717 532.156 64.4215 531.655 64.4718Z" fill="#5F6073"/>
<path d="M546.908 64.8481C546.425 64.6778 545.911 64.6104 545.4 64.6503H541.642V67.6652H545.4C545.911 67.7051 546.425 67.6377 546.908 67.4674C547.107 67.3144 547.264 67.1127 547.363 66.8817C547.462 66.6506 547.5 66.3979 547.474 66.1479C547.559 65.8997 547.548 65.6286 547.444 65.3879C547.339 65.1473 547.148 64.9547 546.908 64.8481Z" fill="#5F6073"/>
<path d="M530.328 74.6464L527.699 71.8194V75.0223H521.471L517.712 70.6898L513.558 75.0223H501.124V61.833H513.748L517.704 66.1655L519.588 63.9062L514.877 59.1959H498.297V77.6593H514.877L517.704 74.8245L520.153 77.6514H530.328V74.6464Z" fill="#5F6073"/>
<path d="M510.733 55.0411L508.283 52.404H507.154V51.2823L504.327 48.4553L502.444 52.4119H499.805L495.282 42.0496V52.4119H488.876L487.559 49.5869H481.151L479.824 52.4119H476.441L482.095 39.2147H486.805L492.089 51.8481V39.2147H494.916L492.267 36.5856H489.442V38.8468L488.501 36.5856H480.219L476.461 45.4404L472.108 55.0411H481.905L483.035 52.2141H485.674L486.993 55.0411H497.543V52.7898L498.485 55.051H503.959L504.901 52.7898V55.0411H510.733Z" fill="#5F6073"/>
<path d="M502.066 46.3844L499.051 43.3695L501.312 48.2678L502.066 46.3844Z" fill="#5F6073"/>
<path d="M587.791 76.7179C588.64 76.1469 589.35 75.3942 589.872 74.5145C590.393 73.6348 590.712 72.65 590.806 71.6317L588.169 68.9946C588.402 69.5959 588.529 70.2332 588.545 70.878C588.56 71.4013 588.467 71.9222 588.273 72.4084C588.078 72.8946 587.787 73.3358 587.415 73.7049C586.321 74.6478 584.9 75.1218 583.459 75.0245H577.429V72.1955H583.459C583.693 72.2359 583.933 72.2231 584.161 72.158C584.39 72.0929 584.601 71.9773 584.778 71.8196C585.02 71.5658 585.155 71.2286 585.155 70.878C585.155 70.5273 585.02 70.1901 584.778 69.9363C584.464 69.6697 584.06 69.535 583.649 69.5604C580.634 69.3626 577.055 69.5604 577.055 65.406C577.055 63.5227 578.185 61.8253 581.012 61.4494L578.936 59.394C578.56 59.5918 578.371 59.7698 578.183 59.7698V58.6402H569.516C568.171 58.583 566.847 58.981 565.757 59.7698V58.6402H550.306V59.7698C549.067 58.9833 547.619 58.5896 546.152 58.6402H535.98V59.7698C534.694 58.9392 533.175 58.5432 531.647 58.6402H520.341L517.704 61.4672L515.255 58.6303H513.182L518.834 64.2823L521.661 61.2674H531.655C534.104 61.2674 536.931 62.0211 536.931 65.5999C536.931 69.3586 534.294 70.1223 531.467 70.1223H527.698V72.9492L530.525 75.7762V72.9492H531.457C532.924 73.0402 534.395 72.8481 535.79 72.3834V77.4696H544.269V72.5734H544.645C545.21 72.5734 545.21 72.5734 545.21 73.1392V77.4716H570.825C572.352 77.5523 573.865 77.1577 575.158 76.342V77.4716H583.269C584.818 77.7002 586.4 77.4366 587.791 76.7179ZM550.299 69.9363C550.728 70.6775 550.925 71.5308 550.864 72.3854V75.0225H547.659V73.3271C547.763 72.4089 547.562 71.4822 547.086 70.69C546.71 70.1242 545.956 70.1242 544.825 70.1242H541.444V75.0225H538.241V61.6453H545.4C546.681 61.5118 547.974 61.7065 549.159 62.2111C549.69 62.5104 550.129 62.9498 550.428 63.4814C550.727 64.013 550.875 64.6164 550.854 65.226C550.881 65.9809 550.679 66.7264 550.276 67.3651C549.873 68.0038 549.286 68.5062 548.593 68.8067C549.269 68.9881 549.868 69.3846 550.299 69.9363ZM563.308 64.4722H555.951V66.9115H563.11V69.5486H555.951V72.1856H563.308V75.0225H552.748V61.6453H563.308V64.4722ZM571.221 75.0225H565.183V72.1955H571.221C571.455 72.2359 571.695 72.2231 571.924 72.158C572.152 72.0929 572.363 71.9773 572.54 71.8196C572.782 71.5658 572.917 71.2286 572.917 70.878C572.917 70.5273 572.782 70.1901 572.54 69.9363C572.227 69.6697 571.822 69.535 571.411 69.5604C568.396 69.3626 564.817 69.5604 564.817 65.406C564.817 63.5227 565.947 61.4494 569.34 61.4494H575.557V64.6523H569.704C569.254 64.6107 568.802 64.6785 568.384 64.8501C568.008 65.0479 568.008 65.4159 568.008 65.7918C568.008 66.3576 568.384 66.5455 568.762 66.7334C569.117 66.8901 569.505 66.958 569.892 66.9313H571.587C572.229 66.8691 572.877 66.9371 573.492 67.1312C574.108 67.3253 574.677 67.6415 575.168 68.0609C575.843 68.8414 576.182 69.858 576.109 70.8879C576.109 73.703 574.414 75.0225 571.221 75.0225Z" fill="#5F6073"/>
<path d="M580.256 65.79C580.256 66.3558 580.454 66.5437 581.01 66.7316C581.364 66.8883 581.752 66.9562 582.139 66.9295H583.835C584.747 66.8951 585.654 67.0896 586.472 67.4953L583.645 64.6683H581.949C581.5 64.6267 581.047 64.6945 580.63 64.8661C580.399 65.1197 580.266 65.4473 580.256 65.79Z" fill="#5F6073"/>
<path d="M573.66 54.4857L574.036 55.0515H574.234L573.66 54.4857Z" fill="#5F6073"/>
<path d="M563.308 44.1238L566.511 51.8391V47.3266L563.308 44.1238Z" fill="#5F6073"/>
<path d="M531.081 50.3411H531.457C531.833 50.3411 531.833 50.3411 531.833 50.9069V55.0613H545.398V53.9317C546.982 54.6998 548.724 55.0867 550.485 55.0613H556.137L557.266 52.0464H559.903L561.033 55.0613H571.961V53.178L569.324 50.5409V52.6142H562.912L561.971 49.5993H555.395L554.265 52.6142H550.684C549.041 52.6948 547.428 52.157 546.162 51.1067C545.54 50.424 545.068 49.6188 544.776 48.7429C544.485 47.867 544.379 46.9397 544.467 46.0205C544.359 44.1126 544.963 42.2325 546.162 40.7444C546.79 40.1665 547.535 39.7307 548.346 39.4668C549.158 39.2029 550.017 39.1171 550.864 39.2152H553.879V42.0422H550.864C549.982 41.9722 549.106 42.2418 548.415 42.7959C547.741 43.6508 547.406 44.7242 547.474 45.8108C547.397 46.3809 547.441 46.9607 547.604 47.5125C547.766 48.0643 548.042 48.5758 548.415 49.0137C548.721 49.287 549.079 49.4949 549.468 49.6245C549.857 49.7541 550.268 49.8028 550.676 49.7674H551.996L556.326 39.413H558.21L555.573 36.776H550.674C548.851 36.7278 547.042 37.115 545.398 37.9056V36.776H537.109V37.9056C536.088 37.1154 534.819 36.715 533.529 36.776H503.195L501.122 41.4863L499.049 36.776H490.762L493.399 39.413H497.158L500.361 46.3845L501.49 47.5142L504.881 39.2251H510.157V52.6023H506.964V42.24L503.761 49.7753L509.225 55.2394H530.892L531.081 50.3411ZM539.746 39.2152H542.951V52.5924H539.746V39.2152ZM523.168 42.0501H515.829V44.4992H522.988V47.1284H515.829V49.7655H523.168V52.5924H512.616V39.2152H523.168V42.0501ZM528.444 52.4124H525.24V39.0372H532.399C533.68 38.8868 534.978 39.0821 536.158 39.603C536.664 39.9164 537.073 40.3643 537.339 40.8967C537.605 41.4291 537.718 42.025 537.665 42.6179C537.692 43.3714 537.492 44.1156 537.09 44.7538C536.689 45.392 536.105 45.8947 535.414 46.1966C536.046 46.3589 536.588 46.7651 536.921 47.3262C537.328 48.0763 537.524 48.9228 537.487 49.7753V52.4124H534.284V50.717C534.371 49.8008 534.173 48.8802 533.719 48.0799C533.521 47.7041 532.965 47.7041 531.835 47.7041H528.442V52.4144L528.444 52.4124Z" fill="#5F6073"/>
</g>
<path d="M723.401 43.3769C723.401 43.8752 723.373 44.3457 723.318 44.8163C722.985 48.8301 721.214 52.4564 718.529 55.1138C715.539 58.1311 711.387 59.9857 706.792 59.9857H698.128C696.743 59.9857 695.581 61.0099 695.387 62.3663L693.283 76.9821C693.117 78.0617 692.342 78.9475 691.318 79.2243C691.069 79.335 690.82 79.3627 690.543 79.3627H685.145C683.429 79.3627 682.128 77.8402 682.405 76.1516L689.02 36.4843C689.685 32.4705 693.145 29.5363 697.214 29.5363H709.56C717.2 29.5363 723.401 35.7369 723.401 43.3769Z" fill="#5F6073"/>
<path d="M728.937 54.4496C728.937 58.2696 727.387 61.7298 724.896 64.2488C722.377 66.7401 718.916 68.2902 715.096 68.2902H709.145C707.789 68.2902 706.626 69.2591 706.404 70.6155L704.411 82.5738C704.19 83.9302 703.027 84.8991 701.671 84.8991H693.56C693.062 84.8991 692.619 84.7883 692.232 84.5669C691.623 84.2347 692.01 83.4319 692.674 83.1551C695.166 82.3524 696.993 80.2209 697.38 77.5635L699.152 65.3283C699.263 64.6363 699.844 64.138 700.508 64.138H706.792C712.356 64.138 717.588 61.9789 721.463 58.0758C723.761 55.8059 725.477 53.0102 726.473 49.9929C726.695 49.3009 727.608 49.1624 727.913 49.7991C728.577 51.2385 728.937 52.7887 728.937 54.4496Z" fill="#5F6073"/>
<path opacity="0.8" d="M808.04 70.1658L812.617 44.4203H819.769L815.334 70.1658H808.04Z" fill="#5F6073"/>
<path opacity="0.8" d="M808.04 70.1658L813.897 44.4203H819.754L815.334 70.1658H808.04Z" fill="#5F6073"/>
<path opacity="0.8" d="M841.23 44.7074C839.126 43.9221 836.895 43.5341 834.65 43.563C827.499 43.563 822.351 47.1388 822.351 52.2885C822.351 56.1497 825.926 58.1456 828.787 59.4401C831.648 60.7347 832.506 61.5862 832.506 62.7291C832.506 64.4457 830.217 65.3032 828.215 65.3032C825.848 65.3556 823.5 64.8666 821.35 63.8735L820.349 63.444L819.347 69.301C821.954 70.2642 824.712 70.751 827.491 70.7382C835.072 70.7382 840.078 67.1624 840.078 61.7274C840.078 58.7238 838.219 56.435 833.92 54.5758C831.346 53.2887 829.772 52.5739 829.772 51.2868C829.772 50.1425 831.06 48.9981 833.92 48.9981C835.783 48.9422 837.636 49.2837 839.356 49.9998L840.07 50.2851L841.215 44.7074H841.23Z" fill="#5F6073"/>
<path opacity="0.8" d="M841.23 44.7074C839.126 43.9221 836.895 43.5341 834.65 43.563C827.499 43.563 823.638 47.1388 823.638 52.2885C823.638 56.1497 825.926 58.1456 828.787 59.4401C831.648 60.7347 832.506 61.5862 832.506 62.7291C832.506 64.4457 830.217 65.3032 828.215 65.3032C825.848 65.3556 823.5 64.8666 821.35 63.8735L820.349 63.444L819.347 69.301C821.954 70.2642 824.712 70.751 827.491 70.7382C835.072 70.7382 840.078 67.1624 840.078 61.7274C840.078 58.7238 838.219 56.435 833.92 54.5758C831.346 53.2887 829.772 52.5739 829.772 51.2868C829.772 50.1425 831.06 48.9981 833.92 48.9981C835.783 48.9422 837.636 49.2837 839.356 49.9998L840.07 50.2851L841.215 44.7074H841.23Z" fill="#5F6073"/>
<path opacity="0.8" d="M853.524 44.4203C851.807 44.4203 850.52 44.5705 849.805 46.2795L839.078 70.1583H846.801L848.231 65.8676H857.392L858.25 70.1583H865.108L859.101 44.4203H853.524ZM850.241 61.5769C850.67 60.2899 853.094 53.9958 853.094 53.9958C853.094 53.9958 853.666 52.4219 854.096 51.4217L854.525 53.8531C854.525 53.8531 855.947 60.2974 856.248 61.7271H850.241V61.5769Z" fill="#5F6073"/>
<path opacity="0.8" d="M855.24 44.4203C853.524 44.4203 852.236 44.5705 851.522 46.2795L839.078 70.1583H846.801L848.231 65.8676H857.392L858.25 70.1583H865.108L859.101 44.4203H855.24ZM850.241 61.5769C850.813 60.1472 853.094 53.9958 853.094 53.9958C853.094 53.9958 853.666 52.4219 854.096 51.4217L854.525 53.8531C854.525 53.8531 855.947 60.2974 856.248 61.7271H850.241V61.5769Z" fill="#5F6073"/>
<path opacity="0.8" d="M794.881 62.4423L794.166 58.7238C792.369 53.8341 788.797 49.8001 784.161 47.4242L790.598 70.3087H798.321L809.906 44.5632H802.183L794.881 62.4423Z" fill="#5F6073"/>
<path opacity="0.8" d="M794.881 62.4423L794.166 58.7238C792.369 53.8341 788.797 49.8001 784.161 47.4242L790.598 70.3087H798.321L809.906 44.5632H803.614L794.881 62.4423Z" fill="#5F6073"/>
<path opacity="0.8" d="M775 44.4205L776.287 44.7059C785.448 46.8519 791.735 52.287 794.159 58.7222L791.584 46.5576C791.155 44.841 789.868 44.4115 788.296 44.4115L775 44.4205Z" fill="#5F6073"/>
<path opacity="0.8" d="M775 44.4203C784.161 46.5589 791.735 52.1441 794.166 58.5733L791.735 48.4181C791.558 47.6414 791.122 46.9483 790.497 46.4539C789.873 45.9595 789.098 45.6934 788.302 45.6998L775 44.4203Z" fill="#5F6073"/>
<path opacity="0.8" d="M775 44.4203C784.161 46.5589 791.735 52.1441 794.166 58.5733L792.45 53.0016C792.02 51.2851 791.448 49.5685 789.446 48.8536L775 44.4203Z" fill="#5F6073"/>
<g opacity="0.8">
<path opacity="0.8" d="M802.032 61.5772L797.17 56.7143L794.881 62.1494L794.309 58.5736C792.508 53.6854 788.934 49.6541 784.296 47.2815L790.733 70.166H798.457L802.032 61.5772Z" fill="#5F6073"/>
<path opacity="0.8" d="M815.334 70.166L809.176 63.8734L808.04 70.166H815.334Z" fill="#5F6073"/>
<path opacity="0.8" d="M831.783 61.298C832.356 61.8702 832.641 62.2997 832.498 62.8719C832.498 64.5884 830.209 65.446 828.208 65.446C825.84 65.4984 823.492 65.0094 821.343 64.0162L820.341 63.5867L819.339 69.4438C821.949 70.4055 824.711 70.8897 827.493 70.8735C832.07 70.8735 835.789 69.5864 837.933 67.2977L831.783 61.298Z" fill="#5F6073"/>
<path opacity="0.8" d="M840.078 70.1658H846.801L848.231 65.8752H857.392L858.25 70.1658H865.109L862.677 59.7252L854.096 51.4293L854.525 53.718C854.525 53.718 855.947 60.1533 856.248 61.577H850.241C850.813 60.1473 853.094 53.9958 853.094 53.9958C853.094 53.9958 853.666 52.422 854.096 51.4218" fill="#5F6073"/>
</g>
<g clip-path="url(#clip1_1_407)">
<path d="M955.283 46.76H959.437L957.354 41.4858L955.283 46.76Z" fill="#5F6073"/>
<path d="M1006.72 42.2396C1006.24 42.0693 1005.72 42.0019 1005.21 42.0418H1001.45V45.0567H1005.21C1005.72 45.0966 1006.24 45.0292 1006.72 44.8589C1006.92 44.7059 1007.07 44.5042 1007.17 44.2731C1007.27 44.042 1007.31 43.7894 1007.28 43.5394C1007.37 43.2912 1007.36 43.02 1007.25 42.7794C1007.15 42.5387 1006.96 42.3461 1006.72 42.2396Z" fill="#5F6073"/>
<path d="M1047.04 36.5859V38.8471L1045.91 36.5859H1037.05V38.8471L1035.91 36.5859H1023.84C1022.02 36.5377 1020.21 36.9249 1018.57 37.7155V36.5859H1010.11V37.7155C1009.09 36.9254 1007.82 36.5249 1006.53 36.5859H976.195L974.122 41.2962L972.049 36.5859H962.442V38.8471L961.311 36.5859H953.219L949.461 45.4408L945.108 55.2392H954.717L955.847 52.2243H958.486L959.615 55.2392H970.543V52.9781L971.485 55.2392H976.959L977.901 52.9781V55.2392H1004.08V50.341H1004.46C1004.83 50.341 1004.83 50.341 1004.83 50.9068V55.0612H1018.4V53.9316C1019.98 54.6997 1021.72 55.0865 1023.48 55.0612H1029.14L1030.27 52.0463H1032.9L1034.03 55.0612H1044.96V52.2243L1046.66 55.0513H1055.52V36.5859H1047.04ZM983.357 52.4123H980.152V42.05L975.63 52.4123H972.805L968.282 42.05V52.4123H961.876L960.559 49.5873H954.151L953.022 52.6022H949.441L955.095 39.2151H959.805L965.089 51.8485V39.2151H970.175L974.33 48.2578L978.089 39.2151H983.365L983.357 52.4123ZM996.168 42.05H988.829V44.4991H995.988V47.1282H988.829V49.7653H996.168V52.5923H985.616V39.2151H996.168V42.05ZM1010.3 47.5239C1010.7 48.274 1010.9 49.1205 1010.86 49.973V52.6101H1007.66V50.9068C1007.75 49.9905 1007.55 49.07 1007.09 48.2697C1006.53 47.7039 1005.96 47.7039 1004.83 47.7039H1001.44V52.6022H998.239V39.2151H1005.4C1006.68 39.0647 1007.98 39.26 1009.16 39.7809C1009.66 40.0943 1010.07 40.5422 1010.34 41.0746C1010.61 41.607 1010.72 42.2029 1010.67 42.7958C1010.69 43.5509 1010.49 44.2973 1010.09 44.9375C1009.69 45.5776 1009.11 46.0819 1008.41 46.3844C1009.15 46.5572 1009.8 46.9558 1010.3 47.5239ZM1015.95 52.4222H1012.75V39.037H1015.95L1015.95 52.4222ZM1053.07 52.4222H1048.55L1042.52 42.4357V52.4222H1036.11L1034.98 49.5952H1028.39L1027.26 52.6101H1023.68C1022.04 52.6907 1020.43 52.1529 1019.16 51.1026C1018.54 50.4199 1018.07 49.6147 1017.78 48.7388C1017.48 47.8629 1017.38 46.9356 1017.47 46.0164C1017.36 44.1085 1017.96 42.2284 1019.16 40.7403C1019.79 40.1631 1020.54 39.728 1021.35 39.4648C1022.16 39.2016 1023.02 39.1164 1023.86 39.2151H1026.88V42.042H1023.86C1022.98 41.972 1022.11 42.2416 1021.42 42.7958C1020.74 43.6506 1020.41 44.7241 1020.47 45.8107C1020.4 46.3807 1020.44 46.9605 1020.6 47.5123C1020.77 48.0641 1021.04 48.5756 1021.42 49.0136C1021.72 49.2869 1022.08 49.4947 1022.47 49.6244C1022.86 49.754 1023.27 49.8026 1023.68 49.7673H1025L1029.33 39.4129H1034.04L1039.31 52.0364V39.4129H1044.02L1049.49 48.6456V39.4129H1052.69V52.4123L1053.07 52.4222Z" fill="#5F6073"/>
<path d="M1029.52 46.7599H1033.85L1031.78 41.4857L1029.52 46.7599Z" fill="#5F6073"/>
<path d="M997.486 73.8924V63.1522L992.587 68.4283L997.486 73.8924Z" fill="#5F6073"/>
<path d="M977.327 64.4722V66.9114H984.298V69.5485H977.327V72.3755H985.042L988.623 68.4189L985.232 64.4623L977.327 64.4722Z" fill="#5F6073"/>
<path d="M1004.66 64.4718H1000.7V67.8626H1004.85C1005.98 67.8626 1006.74 67.2968 1006.74 66.1672C1006.68 65.6667 1006.44 65.2073 1006.05 64.8895C1005.66 64.5717 1005.16 64.4215 1004.66 64.4718Z" fill="#5F6073"/>
<path d="M1062.86 67.6743V59.1953H1054.95C1053.54 59.109 1052.15 59.5077 1050.99 60.3249V59.1953H1042.33C1040.98 59.1381 1039.66 59.5361 1038.57 60.3249V59.1953H1023.3V60.3249C1022.06 59.5384 1020.61 59.1447 1019.14 59.1953H1008.98V60.3249C1007.7 59.4959 1006.18 59.1 1004.66 59.1953H993.341L990.704 62.0223L988.255 59.1953H971.297V77.6587H987.877L990.514 74.8239L992.963 77.6508H1003.14V73.3184H1004.46C1005.92 73.4093 1007.4 73.2172 1008.79 72.7526V77.8388H1017.27V72.9484H1017.64C1018.21 72.9484 1018.21 72.9484 1018.21 73.5142V77.8467H1043.83C1045.35 77.9274 1046.87 77.5327 1048.16 76.7171V77.8467H1056.27C1057.83 77.9582 1059.4 77.6322 1060.79 76.905C1061.74 76.3107 1062.52 75.4768 1063.05 74.4867C1063.58 73.4966 1063.84 72.385 1063.81 71.2629C1063.81 70.0051 1063.49 68.768 1062.86 67.6743ZM1004.46 70.6892H1000.7V75.2195H994.661L990.902 70.887L986.945 75.2195H974.5V61.8324H987.123L990.882 66.1649L994.839 61.8324H1004.83C1007.28 61.8324 1010.11 62.5861 1010.11 66.1649C1009.92 69.9355 1007.28 70.6892 1004.46 70.6892ZM1023.3 69.9355C1023.73 70.6767 1023.93 71.53 1023.86 72.3846V75.0217H1020.66V73.3263C1020.76 72.4081 1020.56 71.4814 1020.09 70.6892C1019.71 70.1234 1018.96 70.1234 1017.82 70.1234H1014.44V75.0217H1011.24V61.6444H1018.4C1019.68 61.5109 1020.97 61.7057 1022.16 62.2102C1022.69 62.5096 1023.13 62.949 1023.43 63.4806C1023.73 64.0122 1023.87 64.6156 1023.85 65.2252C1023.88 65.9801 1023.68 66.7256 1023.28 67.3643C1022.87 68.003 1022.29 68.5054 1021.59 68.8059C1022.27 68.9872 1022.87 69.3838 1023.3 69.9355ZM1036.31 64.4714H1028.95V66.9107H1036.11V69.5477H1028.95V72.1848H1036.31V75.0217H1025.75V61.6444H1036.31V64.4714ZM1044.22 75.0217H1038.18V72.1947H1044.22C1044.46 72.2351 1044.7 72.2222 1044.92 72.1572C1045.15 72.0921 1045.36 71.9765 1045.54 71.8188C1045.78 71.565 1045.92 71.2278 1045.92 70.8771C1045.92 70.5265 1045.78 70.1893 1045.54 69.9355C1045.23 69.6689 1044.82 69.5342 1044.41 69.5596C1041.4 69.3618 1037.82 69.5596 1037.82 65.4052C1037.82 63.5219 1038.95 61.4486 1042.34 61.4486H1048.56V64.6515H1042.7C1042.25 64.6098 1041.8 64.6777 1041.38 64.8493C1041.01 65.0471 1041.01 65.4151 1041.01 65.791C1041.01 66.3567 1041.38 66.5447 1041.76 66.7326C1042.12 66.8893 1042.5 66.9572 1042.89 66.9305H1044.59C1045.23 66.8683 1045.88 66.9363 1046.49 67.1304C1047.11 67.3245 1047.68 67.6407 1048.17 68.0601C1048.84 68.8406 1049.18 69.8572 1049.11 70.887C1049.11 73.7022 1047.41 75.0217 1044.22 75.0217ZM1060.42 73.7022C1059.33 74.645 1057.91 75.119 1056.47 75.0217H1050.43V72.1947H1056.46C1056.69 72.2351 1056.93 72.2222 1057.16 72.1572C1057.39 72.0921 1057.6 71.9765 1057.78 71.8188C1058.02 71.565 1058.16 71.2278 1058.16 70.8771C1058.16 70.5265 1058.02 70.1893 1057.78 69.9355C1057.46 69.6689 1057.06 69.5342 1056.65 69.5596C1053.63 69.3618 1050.06 69.5596 1050.06 65.4052C1050.06 63.5219 1051.18 61.4486 1054.58 61.4486H1060.8V64.6515H1055.14C1054.69 64.6098 1054.24 64.6777 1053.82 64.8493C1053.44 65.0471 1053.44 65.4151 1053.44 65.791C1053.44 66.3567 1053.64 66.5447 1054.2 66.7326C1054.55 66.8893 1054.94 66.9572 1055.33 66.9305H1057.02C1057.66 66.8683 1058.31 66.9363 1058.93 67.1304C1059.54 67.3245 1060.11 67.6407 1060.6 68.0601C1060.63 68.058 1060.66 68.0617 1060.68 68.0709C1060.71 68.0801 1060.73 68.0946 1060.75 68.1134C1060.77 68.1322 1060.78 68.1548 1060.79 68.1798C1060.8 68.2047 1060.8 68.2314 1060.8 68.2579C1061.33 69.0319 1061.6 69.9575 1061.55 70.895C1061.57 71.4157 1061.47 71.9332 1061.27 72.4159C1061.08 72.8985 1060.79 73.3362 1060.42 73.7022H1060.42Z" fill="#5F6073"/>
<path d="M1019.91 64.8481C1019.42 64.6778 1018.91 64.6104 1018.4 64.6503H1014.64V67.6652H1018.4C1018.91 67.7051 1019.42 67.6377 1019.91 67.4674C1020.11 67.3144 1020.26 67.1127 1020.36 66.8817C1020.46 66.6506 1020.5 66.3979 1020.47 66.1479C1020.56 65.8997 1020.55 65.6286 1020.44 65.3879C1020.34 65.1473 1020.15 64.9547 1019.91 64.8481Z" fill="#5F6073"/>
<path d="M1006.72 42.2395C1006.24 42.0692 1005.72 42.0018 1005.21 42.0417H1001.45V45.0566H1005.21C1005.72 45.0965 1006.24 45.0291 1006.72 44.8588C1006.92 44.7058 1007.07 44.5041 1007.17 44.273C1007.27 44.0419 1007.31 43.7892 1007.28 43.5392C1007.37 43.2911 1007.36 43.0199 1007.25 42.7793C1007.15 42.5386 1006.96 42.346 1006.72 42.2395Z" fill="#5F6073"/>
<path d="M1029.52 46.7599H1033.85L1031.78 41.4857L1029.52 46.7599Z" fill="#5F6073"/>
<path d="M997.486 73.8924V63.1522L992.587 68.4283L997.486 73.8924Z" fill="#5F6073"/>
<path d="M1004.66 64.4718H1000.7V67.8626H1004.85C1005.98 67.8626 1006.74 67.2968 1006.74 66.1672C1006.68 65.6667 1006.44 65.2073 1006.05 64.8895C1005.66 64.5717 1005.16 64.4215 1004.66 64.4718Z" fill="#5F6073"/>
<path d="M1019.91 64.8481C1019.42 64.6778 1018.91 64.6104 1018.4 64.6503H1014.64V67.6652H1018.4C1018.91 67.7051 1019.42 67.6377 1019.91 67.4674C1020.11 67.3144 1020.26 67.1127 1020.36 66.8817C1020.46 66.6506 1020.5 66.3979 1020.47 66.1479C1020.56 65.8997 1020.55 65.6286 1020.44 65.3879C1020.34 65.1473 1020.15 64.9547 1019.91 64.8481Z" fill="#5F6073"/>
<path d="M1003.33 74.6464L1000.7 71.8194V75.0223H994.471L990.712 70.6898L986.558 75.0223H974.124V61.833H986.748L990.704 66.1655L992.588 63.9062L987.877 59.1959H971.297V77.6593H987.877L990.704 74.8245L993.153 77.6514H1003.33V74.6464Z" fill="#5F6073"/>
<path d="M983.733 55.0411L981.283 52.404H980.154V51.2823L977.327 48.4553L975.444 52.4119H972.805L968.282 42.0496V52.4119H961.876L960.559 49.5869H954.151L952.824 52.4119H949.441L955.095 39.2147H959.805L965.089 51.8481V39.2147H967.916L965.267 36.5856H962.442V38.8468L961.501 36.5856H953.219L949.461 45.4404L945.108 55.0411H954.905L956.035 52.2141H958.674L959.993 55.0411H970.543V52.7898L971.485 55.051H976.959L977.901 52.7898V55.0411H983.733Z" fill="#5F6073"/>
<path d="M975.066 46.3844L972.051 43.3695L974.312 48.2678L975.066 46.3844Z" fill="#5F6073"/>
<path d="M1060.79 76.7179C1061.64 76.1469 1062.35 75.3942 1062.87 74.5145C1063.39 73.6348 1063.71 72.65 1063.81 71.6317L1061.17 68.9946C1061.4 69.5959 1061.53 70.2332 1061.54 70.878C1061.56 71.4013 1061.47 71.9222 1061.27 72.4084C1061.08 72.8946 1060.79 73.3358 1060.42 73.7049C1059.32 74.6478 1057.9 75.1218 1056.46 75.0245H1050.43V72.1955H1056.46C1056.69 72.2359 1056.93 72.2231 1057.16 72.158C1057.39 72.0929 1057.6 71.9773 1057.78 71.8196C1058.02 71.5658 1058.15 71.2286 1058.15 70.878C1058.15 70.5273 1058.02 70.1901 1057.78 69.9363C1057.46 69.6697 1057.06 69.535 1056.65 69.5604C1053.63 69.3626 1050.05 69.5604 1050.05 65.406C1050.05 63.5227 1051.18 61.8253 1054.01 61.4494L1051.94 59.394C1051.56 59.5918 1051.37 59.7698 1051.18 59.7698V58.6402H1042.52C1041.17 58.583 1039.85 58.981 1038.76 59.7698V58.6402H1023.31V59.7698C1022.07 58.9833 1020.62 58.5896 1019.15 58.6402H1008.98V59.7698C1007.69 58.9392 1006.17 58.5432 1004.65 58.6402H993.341L990.704 61.4672L988.255 58.6303H986.182L991.834 64.2823L994.661 61.2674H1004.65C1007.1 61.2674 1009.93 62.0211 1009.93 65.5999C1009.93 69.3586 1007.29 70.1223 1004.47 70.1223H1000.7V72.9492L1003.53 75.7762V72.9492H1004.46C1005.92 73.0402 1007.4 72.8481 1008.79 72.3834V77.4696H1017.27V72.5734H1017.64C1018.21 72.5734 1018.21 72.5734 1018.21 73.1392V77.4716H1043.83C1045.35 77.5523 1046.87 77.1577 1048.16 76.342V77.4716H1056.27C1057.82 77.7002 1059.4 77.4366 1060.79 76.7179ZM1023.3 69.9363C1023.73 70.6775 1023.93 71.5308 1023.86 72.3854V75.0225H1020.66V73.3271C1020.76 72.4089 1020.56 71.4822 1020.09 70.69C1019.71 70.1242 1018.96 70.1242 1017.82 70.1242H1014.44V75.0225H1011.24V61.6453H1018.4C1019.68 61.5118 1020.97 61.7065 1022.16 62.2111C1022.69 62.5104 1023.13 62.9498 1023.43 63.4814C1023.73 64.013 1023.87 64.6164 1023.85 65.226C1023.88 65.9809 1023.68 66.7264 1023.28 67.3651C1022.87 68.0038 1022.29 68.5062 1021.59 68.8067C1022.27 68.9881 1022.87 69.3846 1023.3 69.9363ZM1036.31 64.4722H1028.95V66.9115H1036.11V69.5486H1028.95V72.1856H1036.31V75.0225H1025.75V61.6453H1036.31V64.4722ZM1044.22 75.0225H1038.18V72.1955H1044.22C1044.45 72.2359 1044.7 72.2231 1044.92 72.158C1045.15 72.0929 1045.36 71.9773 1045.54 71.8196C1045.78 71.5658 1045.92 71.2286 1045.92 70.878C1045.92 70.5273 1045.78 70.1901 1045.54 69.9363C1045.23 69.6697 1044.82 69.535 1044.41 69.5604C1041.4 69.3626 1037.82 69.5604 1037.82 65.406C1037.82 63.5227 1038.95 61.4494 1042.34 61.4494H1048.56V64.6523H1042.7C1042.25 64.6107 1041.8 64.6785 1041.38 64.8501C1041.01 65.0479 1041.01 65.4159 1041.01 65.7918C1041.01 66.3576 1041.38 66.5455 1041.76 66.7334C1042.12 66.8901 1042.5 66.958 1042.89 66.9313H1044.59C1045.23 66.8691 1045.88 66.9371 1046.49 67.1312C1047.11 67.3253 1047.68 67.6415 1048.17 68.0609C1048.84 68.8414 1049.18 69.858 1049.11 70.8879C1049.11 73.703 1047.41 75.0225 1044.22 75.0225Z" fill="#5F6073"/>
<path d="M1053.26 65.79C1053.26 66.3558 1053.45 66.5437 1054.01 66.7316C1054.36 66.8883 1054.75 66.9562 1055.14 66.9295H1056.83C1057.75 66.8951 1058.65 67.0896 1059.47 67.4953L1056.64 64.6683H1054.95C1054.5 64.6267 1054.05 64.6945 1053.63 64.8661C1053.4 65.1197 1053.27 65.4473 1053.26 65.79Z" fill="#5F6073"/>
<path d="M1046.66 54.4857L1047.04 55.0515H1047.23L1046.66 54.4857Z" fill="#5F6073"/>
<path d="M1036.31 44.1238L1039.51 51.8391V47.3266L1036.31 44.1238Z" fill="#5F6073"/>
<path d="M1004.08 50.3411H1004.46C1004.83 50.3411 1004.83 50.3411 1004.83 50.9069V55.0613H1018.4V53.9317C1019.98 54.6998 1021.72 55.0867 1023.48 55.0613H1029.14L1030.27 52.0464H1032.9L1034.03 55.0613H1044.96V53.178L1042.32 50.5409V52.6142H1035.91L1034.97 49.5993H1028.39L1027.26 52.6142H1023.68C1022.04 52.6948 1020.43 52.157 1019.16 51.1067C1018.54 50.424 1018.07 49.6188 1017.78 48.7429C1017.48 47.867 1017.38 46.9397 1017.47 46.0205C1017.36 44.1126 1017.96 42.2325 1019.16 40.7444C1019.79 40.1665 1020.53 39.7307 1021.35 39.4668C1022.16 39.2029 1023.02 39.1171 1023.86 39.2152H1026.88V42.0422H1023.86C1022.98 41.9722 1022.11 42.2418 1021.42 42.7959C1020.74 43.6508 1020.41 44.7242 1020.47 45.8108C1020.4 46.3809 1020.44 46.9607 1020.6 47.5125C1020.77 48.0643 1021.04 48.5758 1021.42 49.0137C1021.72 49.287 1022.08 49.4949 1022.47 49.6245C1022.86 49.7541 1023.27 49.8028 1023.68 49.7674H1025L1029.33 39.413H1031.21L1028.57 36.776H1023.67C1021.85 36.7278 1020.04 37.115 1018.4 37.9056V36.776H1010.11V37.9056C1009.09 37.1154 1007.82 36.715 1006.53 36.776H976.195L974.122 41.4863L972.049 36.776H963.762L966.399 39.413H970.158L973.36 46.3845L974.49 47.5142L977.881 39.2251H983.157V52.6023H979.964V42.24L976.761 49.7753L982.225 55.2394H1003.89L1004.08 50.3411ZM1012.75 39.2152H1015.95V52.5924H1012.75V39.2152ZM996.168 42.0501H988.829V44.4992H995.988V47.1284H988.829V49.7655H996.168V52.5924H985.616V39.2152H996.168V42.0501ZM1001.44 52.4124H998.239V39.0372H1005.4C1006.68 38.8868 1007.98 39.0821 1009.16 39.603C1009.66 39.9164 1010.07 40.3643 1010.34 40.8967C1010.61 41.4291 1010.72 42.025 1010.67 42.6179C1010.69 43.3714 1010.49 44.1156 1010.09 44.7538C1009.69 45.392 1009.1 45.8947 1008.41 46.1966C1009.05 46.3589 1009.59 46.7651 1009.92 47.3262C1010.33 48.0763 1010.52 48.9228 1010.49 49.7753V52.4124H1007.28V50.717C1007.37 49.8008 1007.17 48.8802 1006.72 48.0799C1006.52 47.7041 1005.96 47.7041 1004.84 47.7041H1001.44V52.4144L1001.44 52.4124Z" fill="#5F6073"/>
</g>
<path d="M1196.4 43.3769C1196.4 43.8752 1196.37 44.3457 1196.32 44.8163C1195.99 48.8301 1194.21 52.4564 1191.53 55.1138C1188.54 58.1311 1184.39 59.9857 1179.79 59.9857H1171.13C1169.74 59.9857 1168.58 61.0099 1168.39 62.3663L1166.28 76.9821C1166.12 78.0617 1165.34 78.9475 1164.32 79.2243C1164.07 79.335 1163.82 79.3627 1163.54 79.3627H1158.15C1156.43 79.3627 1155.13 77.8402 1155.4 76.1516L1162.02 36.4843C1162.68 32.4705 1166.15 29.5363 1170.21 29.5363H1182.56C1190.2 29.5363 1196.4 35.7369 1196.4 43.3769Z" fill="#5F6073"/>
<path d="M1201.94 54.4496C1201.94 58.2696 1200.39 61.7298 1197.9 64.2488C1195.38 66.7401 1191.92 68.2902 1188.1 68.2902H1182.14C1180.79 68.2902 1179.63 69.2591 1179.4 70.6155L1177.41 82.5738C1177.19 83.9302 1176.03 84.8991 1174.67 84.8991H1166.56C1166.06 84.8991 1165.62 84.7883 1165.23 84.5669C1164.62 84.2347 1165.01 83.4319 1165.67 83.1551C1168.17 82.3524 1169.99 80.2209 1170.38 77.5635L1172.15 65.3283C1172.26 64.6363 1172.84 64.138 1173.51 64.138H1179.79C1185.36 64.138 1190.59 61.9789 1194.46 58.0758C1196.76 55.8059 1198.48 53.0102 1199.47 49.9929C1199.69 49.3009 1200.61 49.1624 1200.91 49.7991C1201.58 51.2385 1201.94 52.7887 1201.94 54.4496Z" fill="#5F6073"/>
<defs>
<clipPath id="clip0_1_407">
<rect width="118.698" height="49.4574" fill="white" transform="translate(472.108 32.489)"/>
</clipPath>
<clipPath id="clip1_1_407">
<rect width="118.698" height="49.4574" fill="white" transform="translate(945.108 32.489)"/>
</clipPath>
</defs>
</svg>
